# xmcd
#
# Track frame offsets:
# 150
# 12442
# 25190
# 36140
# 47237
# 61510
# 74392
# 86427
# 99775
# 114002
# 128512
# 143180
# 155692
# 168892
# 181945
#
# Disc length: 2669 seconds
#
#
# Revision: 0
# Processed by: cddbd v1.5.2PL0 Copyright (c) Steve Scherf et al.
# Submitted via: FreeRIP 2.951 
#
DISCID=b00a6b0f
DTITLE=Amalia Mendoza - 15 Grandes Exitos
DYEAR=1991
DGENRE=Ranchero
TTITLE0=Amarga Navidad
TTITLE1=Pa´Que Me Sirve La Vida
TTITLE2=El Silencio De La Noche
TTITLE3=Llorarras
TTITLE4=Gritenme Piedras Del Campo
TTITLE5=Aunque Pasen Los Años
TTITLE6=La Noche De Mi Mal
TTITLE7=Puñalada Trapera
TTITLE8=Echame A Mi La Culpa
TTITLE9=Mucho Corazon
TTITLE10=Cuando Te Canses De Llorar
TTITLE11=Tres Cachetadas
TTITLE12=Y Ya
TTITLE13=Una Sola Caida
TTITLE14=Pobre Del Pobre
EXTD=
EXTT0=
EXTT1=
EXTT2=
EXTT3=
EXTT4=
EXTT5=
EXTT6=
EXTT7=
EXTT8=
EXTT9=
EXTT10=
EXTT11=
EXTT12=
EXTT13=
EXTT14=
PLAYORDER=
